<svg width="43" height="36" viewBox="0 0 43 36" fill="none" xmlns="http://www.w3.org/2000/svg">
<path fill-rule="evenodd" clip-rule="evenodd" d="M0.0187988 5.15903C0.0187988 5.15903 17.7294 15.2023 21.167 15.2023C24.77 15.2023 42.2888 5.35089 42.2888 5.35089L42.317 3.59074C42.317 1.64753 40.7399 0.0704346 38.7914 0.0704346H3.54262C1.59589 0.0704346 0.0187988 1.64753 0.0187988 3.59074V5.15903ZM42.2888 10.632C42.2888 10.632 24.9355 20.0427 21.167 20.0427C17.7294 20.0427 0.0452011 10.632 0.0469612 10.632L0.0187988 31.7522C0.0187988 33.6953 1.59765 35.2723 3.54262 35.2723H38.7914C40.7399 35.2723 42.317 33.6953 42.317 31.7522L42.2888 10.632Z" fill="#FEFEFE"/>
</svg>
