<svg width="42" height="42" viewBox="0 0 42 42" fill="none" xmlns="http://www.w3.org/2000/svg">
<path d="M18.3014 8.97396L11.362 0.964337C10.5621 0.0413323 9.09543 0.0454346 8.16622 0.976644L2.45969 6.69312C0.761269 8.3935 0.275127 10.9184 1.25767 12.9429C7.12751 25.0957 16.9292 34.9106 29.0744 40.7971C31.0969 41.7796 33.62 41.2935 35.3184 39.5931L41.0782 33.8233C42.0116 32.89 42.0136 31.4153 41.0823 30.6153L33.0415 23.7133C32.2005 22.9913 30.8939 23.0857 30.0508 23.9307L27.2529 26.7326C27.1097 26.8827 26.9212 26.9816 26.7162 27.0142C26.5113 27.0468 26.3014 27.0113 26.1186 26.9131C21.5453 24.2796 17.7516 20.4812 15.124 15.9047C15.0256 15.7216 14.99 15.5114 15.0226 15.3061C15.0552 15.1008 15.1542 14.9119 15.3045 14.7684L18.0942 11.9768C18.9393 11.1276 19.0316 9.81492 18.3014 8.97191V8.97396Z" fill="#FEFEFE"/>
</svg>
