<svg width="45" height="46" viewBox="0 0 45 46" fill="none" xmlns="http://www.w3.org/2000/svg">
<path fill-rule="evenodd" clip-rule="evenodd" d="M11.6186 42.499L10.8177 42.0097L2.5168 44.2513L4.73244 35.9199L4.21096 35.0656C2.01551 31.4711 0.855969 27.3164 0.857668 23.0503C0.862468 10.6022 10.7013 0.474854 22.7991 0.474854C28.6572 0.476944 34.1639 2.82832 38.3048 7.09591C42.4456 11.3635 44.7247 17.0359 44.7224 23.0686C44.7176 35.5177 34.8789 45.6461 22.7905 45.6461H22.7816C18.846 45.6445 14.986 44.556 11.6186 42.499ZM35.1892 28.9204C35.649 29.1492 35.9595 29.3037 36.0922 29.5315C36.2569 29.8145 36.2569 31.1735 35.7078 32.7592C35.1581 34.3446 32.5241 35.7916 31.2572 35.9863C30.1213 36.1612 28.6838 36.2341 27.1044 35.7174C26.1468 35.4046 24.9187 34.987 23.3457 34.2877C17.1645 31.5402 12.9874 25.3731 12.1979 24.2076C12.1426 24.1259 12.1039 24.0688 12.0823 24.0391L12.077 24.0318C11.7281 23.5526 9.39008 20.3414 9.39008 17.0179C9.39008 13.8916 10.8819 12.2529 11.5686 11.4986C11.6157 11.4469 11.659 11.3994 11.6977 11.3558C12.302 10.6763 13.0164 10.5064 13.4559 10.5064C13.8954 10.5064 14.3355 10.5106 14.7196 10.5304C14.767 10.5329 14.8163 10.5326 14.8673 10.5323C15.2515 10.53 15.7305 10.5271 16.2031 11.6955C16.3849 12.1452 16.6509 12.8119 16.9314 13.515C17.4988 14.9369 18.1256 16.5078 18.2359 16.7352C18.4008 17.0749 18.5106 17.4711 18.2909 17.9243C18.2579 17.9923 18.2274 18.0564 18.1982 18.1177C18.0332 18.4646 17.9117 18.7197 17.6316 19.0565C17.5214 19.1889 17.4075 19.3316 17.2937 19.4744C17.0669 19.7587 16.84 20.0431 16.6425 20.2456C16.3125 20.5841 15.9689 20.9513 16.3535 21.6308C16.7381 22.3103 18.0613 24.5328 20.0214 26.3326C22.1284 28.2673 23.9597 29.0849 24.8879 29.4994C25.0691 29.5803 25.216 29.6459 25.3237 29.7014C25.9828 30.0413 26.3674 29.9844 26.752 29.5315C27.1367 29.0786 28.4002 27.5496 28.8397 26.8702C29.2792 26.191 29.7189 26.3041 30.3232 26.5305C30.9277 26.7572 34.1692 28.399 34.8286 28.7387C34.9573 28.8051 35.0776 28.8649 35.1892 28.9204Z" fill="#FEFEFE"/>
</svg>
