<svg width="81" height="29" viewBox="0 0 81 29" fill="none" xmlns="http://www.w3.org/2000/svg">
<circle r="4.94318" transform="matrix(1 5.85472e-08 -1.16961e-08 -1 63.1531 14.0184)" fill="#F6F6F6"/>
<path d="M47.8894 3.77648C48.3799 4.50129 49.1981 4.93551 50.0733 4.93551L54.9663 4.93551C69.0054 4.93551 77.4853 10.8741 80.4171 13.358C80.736 13.6258 80.9177 14.0196 80.9209 14.4341C80.9225 14.8502 80.7423 15.244 80.4267 15.5166C77.5012 18.0419 69.0181 24.1001 54.9663 24.1001L50.0735 24.1001C49.1974 24.1001 48.3788 24.5357 47.8894 25.2623C46.3781 27.5022 43.8512 28.8462 41.1473 28.8462L33.6368 28.8462C33.192 28.8462 32.7806 28.6007 32.5686 28.2085C32.3582 27.8147 32.3821 27.338 32.6308 26.9682L35.1449 23.1929C35.8496 22.1328 36.2274 20.8892 36.2274 19.6154C36.2274 18.0825 34.9847 16.8398 33.4518 16.8398L32.5877 16.8398C31.9181 16.8398 31.3761 16.2978 31.3761 15.6298L31.3761 13.4074C31.3761 12.7394 31.9181 12.1974 32.5877 12.1974L33.4534 12.1974C34.9855 12.1974 36.2274 10.9554 36.2274 9.42334C36.2274 8.14953 35.8528 6.90441 35.1433 5.84264L32.6308 2.07062C32.3821 1.70075 32.3582 1.22407 32.5686 0.830288C32.7806 0.438101 33.192 0.192585 33.6368 0.192585L41.1473 0.192586C43.848 0.192586 46.3749 1.53814 47.8894 3.77648ZM58.5327 14.517C58.5327 16.8223 60.4028 18.694 62.7081 18.694C65.015 18.694 66.8834 16.8223 66.8834 14.517C66.8834 12.2133 65.015 10.3416 62.7081 10.3416C60.4028 10.3416 58.5327 12.2133 58.5327 14.517Z" fill="#FFDEDE"/>
<path d="M47.8894 3.77648C48.3799 4.50129 49.1981 4.93551 50.0733 4.93551L54.9663 4.93551C69.0054 4.93551 77.4853 10.8741 80.4171 13.358C80.736 13.6258 80.9177 14.0196 80.9209 14.4341C80.9225 14.8502 80.7423 15.244 80.4267 15.5166C77.5012 18.0419 69.0181 24.1001 54.9663 24.1001L50.0735 24.1001C49.1974 24.1001 48.3788 24.5357 47.8894 25.2623C46.3781 27.5022 43.8512 28.8462 41.1473 28.8462L33.6368 28.8462C33.192 28.8462 32.7806 28.6007 32.5686 28.2085C32.3582 27.8147 32.3821 27.338 32.6308 26.9682L35.1449 23.1929C35.8496 22.1328 36.2274 20.8892 36.2274 19.6154C36.2274 18.0825 34.9847 16.8398 33.4518 16.8398L32.5877 16.8398C31.9181 16.8398 31.3761 16.2978 31.3761 15.6298L31.3761 13.4074C31.3761 12.7394 31.9181 12.1974 32.5877 12.1974L33.4534 12.1974C34.9855 12.1974 36.2274 10.9554 36.2274 9.42334C36.2274 8.14953 35.8528 6.90441 35.1433 5.84264L32.6308 2.07062C32.3821 1.70075 32.3582 1.22407 32.5686 0.830288C32.7806 0.438101 33.192 0.192585 33.6368 0.192585L41.1473 0.192586C43.848 0.192586 46.3749 1.53814 47.8894 3.77648ZM58.5327 14.517C58.5327 16.8223 60.4028 18.694 62.7081 18.694C65.015 18.694 66.8834 16.8223 66.8834 14.517C66.8834 12.2133 65.015 10.3416 62.7081 10.3416C60.4028 10.3416 58.5327 12.2133 58.5327 14.517Z" fill="url(#paint0_linear_610_1296)"/>
<path d="M47.8894 3.77648C48.3799 4.50129 49.1981 4.93551 50.0733 4.93551L54.9663 4.93551C69.0054 4.93551 77.4853 10.8741 80.4171 13.358C80.736 13.6258 80.9177 14.0196 80.9209 14.4341C80.9225 14.8502 80.7423 15.244 80.4267 15.5166C77.5012 18.0419 69.0181 24.1001 54.9663 24.1001L50.0735 24.1001C49.1974 24.1001 48.3788 24.5357 47.8894 25.2623C46.3781 27.5022 43.8512 28.8462 41.1473 28.8462L33.6368 28.8462C33.192 28.8462 32.7806 28.6007 32.5686 28.2085C32.3582 27.8147 32.3821 27.338 32.6308 26.9682L35.1449 23.1929C35.8496 22.1328 36.2274 20.8892 36.2274 19.6154C36.2274 18.0825 34.9847 16.8398 33.4518 16.8398L32.5877 16.8398C31.9181 16.8398 31.3761 16.2978 31.3761 15.6298L31.3761 13.4074C31.3761 12.7394 31.9181 12.1974 32.5877 12.1974L33.4534 12.1974C34.9855 12.1974 36.2274 10.9554 36.2274 9.42334C36.2274 8.14953 35.8528 6.90441 35.1433 5.84264L32.6308 2.07062C32.3821 1.70075 32.3582 1.22407 32.5686 0.830288C32.7806 0.438101 33.192 0.192585 33.6368 0.192585L41.1473 0.192586C43.848 0.192586 46.3749 1.53814 47.8894 3.77648ZM58.5327 14.517C58.5327 16.8223 60.4028 18.694 62.7081 18.694C65.015 18.694 66.8834 16.8223 66.8834 14.517C66.8834 12.2133 65.015 10.3416 62.7081 10.3416C60.4028 10.3416 58.5327 12.2133 58.5327 14.517Z" fill="#000D0A"/>
<line y1="-1.10143" x2="24.3351" y2="-1.10143" transform="matrix(1 1.19249e-08 1.19249e-08 -1 0.174805 14.2966)" stroke="#000D0A" stroke-width="2.20285"/>
<line y1="-1.10143" x2="14.8415" y2="-1.10143" transform="matrix(1 1.19249e-08 1.19249e-08 -1 4.33398 20.6738)" stroke="#000D0A" stroke-width="2.20285"/>
<line y1="-1.10143" x2="14.8415" y2="-1.10143" transform="matrix(1 1.19249e-08 1.19249e-08 -1 3.97144 7.93066)" stroke="#000D0A" stroke-width="2.20285"/>
<line y1="-1.10143" x2="24.3351" y2="-1.10143" transform="matrix(1 1.19249e-08 1.19249e-08 -1 0.174805 14.2966)" stroke="#000D0A" stroke-width="2.20285"/>
<line y1="-1.10143" x2="14.8415" y2="-1.10143" transform="matrix(1 1.19249e-08 1.19249e-08 -1 4.33398 20.6738)" stroke="#000D0A" stroke-width="2.20285"/>
<line y1="-1.10143" x2="14.8415" y2="-1.10143" transform="matrix(1 1.19249e-08 1.19249e-08 -1 3.97144 7.93066)" stroke="#000D0A" stroke-width="2.20285"/>
<line y1="-1.10143" x2="24.3351" y2="-1.10143" transform="matrix(1 1.19249e-08 1.19249e-08 -1 0.174805 14.2966)" stroke="#000D0A" stroke-width="2.20285"/>
<line y1="-1.10143" x2="14.8415" y2="-1.10143" transform="matrix(1 1.19249e-08 1.19249e-08 -1 4.33398 20.6738)" stroke="#000D0A" stroke-width="2.20285"/>
<line y1="-1.10143" x2="14.8415" y2="-1.10143" transform="matrix(1 1.19249e-08 1.19249e-08 -1 3.97144 7.93066)" stroke="#000D0A" stroke-width="2.20285"/>
<defs>
<linearGradient id="paint0_linear_610_1296" x1="30.0285" y1="14.5334" x2="52.9947" y2="-17.1495" gradientUnits="userSpaceOnUse">
<stop stop-color="#EF0AF0"/>
<stop offset="1" stop-color="#9700D5"/>
</linearGradient>
</defs>
</svg>
